<svg xmlns="http://www.w3.org/2000/svg" viewBox="0 0 96 96" role="img" aria-label="Ganpati mark">
  <defs>
    <linearGradient id="ganpatiGold" x1="18" y1="14" x2="78" y2="82" gradientUnits="userSpaceOnUse">
      <stop stop-color="#e9b66f"/>
      <stop offset="0.45" stop-color="#c97d43"/>
      <stop offset="1" stop-color="#8f3d42"/>
    </linearGradient>
  </defs>
  <path d="M26 39c0-13 10-23 23-23 11 0 20 8 20 19 0 9-6 16-15 16H41" fill="none" stroke="url(#ganpatiGold)" stroke-width="7" stroke-linecap="round"/>
  <path d="M49 51c12 0 21 7 21 18 0 8-6 14-14 14-7 0-13-5-13-12 0-6 4-10 10-10" fill="none" stroke="url(#ganpatiGold)" stroke-width="7" stroke-linecap="round"/>
  <path d="M25 41c-8-1-14-6-14-13 0-5 4-9 9-9 4 0 8 2 11 6" fill="none" stroke="url(#ganpatiGold)" stroke-width="6" stroke-linecap="round"/>
  <path d="M71 38c8-1 14-6 14-13 0-5-4-9-9-9-4 0-8 2-11 6" fill="none" stroke="url(#ganpatiGold)" stroke-width="6" stroke-linecap="round"/>
  <circle cx="43" cy="35" r="3.2" fill="#8f3d42"/>
  <path d="M30 67c7 9 25 11 37 0" fill="none" stroke="#d79655" stroke-width="5" stroke-linecap="round"/>
</svg>
